<svg xmlns="http://www.w3.org/2000/svg" viewBox="0 0 512 512">
  <rect width="512" height="512" rx="96" fill="#06224a"/>
  <path d="M112 316c54-66 103-99 148-99 33 0 56 17 79 33 19 14 38 27 61 27 16 0 32-5 48-15v57c-18 9-37 14-57 14-39 0-66-19-91-36-18-13-35-25-56-25-34 0-72 28-113 84l-19-40Z" fill="#ffffff"/>
  <path d="M150 199c45-33 87-49 126-49 44 0 77 21 109 42 18 12 36 23 55 30v60c-33-8-58-25-82-41-28-18-53-35-86-35-33 0-70 15-111 45l-11-52Z" fill="#7dd3fc"/>
  <circle cx="174" cy="150" r="28" fill="#ffffff"/>
</svg>
